P3
# CREATOR: GIMP PNM Filter Version 1.1
255 1
255
182
93
93
184
95
95
186
101
101
186
101
101
188
105
105
189
108
108
190
111
111
192
113
113
192
115
115
195
120
120
196
123
123
195
122
122
194
119
119
192
115
115
190
111
111
187
102
102
183
94
94
178
81
81
164
73
73
143
64
64
119
52
52
81
36
36
191
67
18
193
68
18
202
71
19
228
80
21
238
126
81
253
248
248
248
246
247
245
243
245
240
240
243
236
238
241
232
234
239
228
231
238
223
229
236
219
226
234
215
223
232
211
220
230
208
218
229
203
215
227
199
212
225
194
210
223
191
208
221
187
204
219
183
202
218
180
200
216
175
197
214
171
194
212
168
192
210
163
189
209
160
185
208
157
183
205
152
181
203
149
179
202
145
175
200
142
173
199
137
171
197
134
169
194
131
166
193
128
163
191
123
161
190
119
159
189
116
157
185
113
153
184
110
151
183
106
148
181
104
147
180
102
146
180
100
145
179
99
144
178
97
143
176
95
141
175
94
139
174
92
138
173
90
136
173
89
135
172
87
134
171
85
133
171
84
132
170
82
131
169
81
130
168
79
129
168
77
128
166
76
126
164
75
126
165
75
126
166
84
133
174
82
129
176
84
128
179
86
127
181
88
124
184
90
121
187
91
117
190
93
111
193
95
108
196
95
104
199
97
101
199
100
102
200
100
102
202
103
104
204
109
111
206
113
115
207
121
123
210
127
129
212
131
132
214
135
136
215
136
138
215
139
141
216
140
142
217
142
144
217
145
147
218
148
149
219
149
151
220
151
152
220
154
155
221
156
157
222
159
160
223
162
163
224
162
163
224
166
167
225
166
167
225
169
170
226
172
173
227
174
175
227
175
176
228
175
176
228
180
181
230
183
184
231
184
185
231
187
188
232
187
188
232
192
192
234
193
194
234
195
195
235
196
197
235
197
198
236
199
200
236
196
197
235
187
188
232
180
181
230
167
169
226
155
159
221
139
146
216
123
137
211
106
126
203
90
120
198
76
114
193
63
117
187
56
115
185
46
124
178
42
126
179
37
129
177
35
132
179
33
135
180
32
138
181
31
140
184
30
144
186
29
148
188
29
153
190
28
156
192
27
159
194
26
162
196
25
165
198
24
168
200
23
171
201
22
175
203
21
178
206
20
181
207
19
185
210
18
188
212
17
191
213
16
194
215
15
198
217
14
202
220
12
207
223
11
212
225
9
216
228
9
218
230
8
222
231
14
224
224
26
225
208
44
226
185
64
224
159
80
224
141
90
222
129
96
222
125
99
222
125
99
223
125
102
223
126
106
222
123
110
222
119
112
222
116
115
222
117
115
222
117
115
222
117
116
223
120
116
223
122
116
224
124
115
226
134
107
228
149
100
230
162
88
234
184
80
239
200
75
240
211
71
243
222
68
244
230
61
246
240
60
248
244
60
248
247
61
249
248
63
249
249
65
250
249
68
250
250
70
251
251
73
251
252
77
252
252
81
252
253
84
253
253
88
253
254
92
254
254
95
254
254
99
254
254
102
254
254
106
254
254
110
254
254
115
254
254
121
254
254
126
254
254
132
254
254
138
254
254
144
254
254
149
254
254
154
254
254
159
254
254
164
254
254
168
254
254
173
254
254
176
254
254
180
254
254
184
254
254
188
254
254
191
254
254
195
254
254
199
254
254
202
254
254
206
254
254
209
254
254
212
254
254
215
254
254
219
254
254
221
254
254
224
254
254
226
254
254
228
254
254
230
254
254
